<svg width="24" height="25" viewBox="0 0 24 25" fill="none" xmlns="http://www.w3.org/2000/svg">
<path d="M7.83334 5.22802C10.5027 5.22802 12.6667 7.39198 12.6667 10.0614C12.6667 11.216 12.2618 12.276 11.5863 13.1072L14.8535 16.3745C15.0488 16.5698 15.0488 16.8863 14.8535 17.0816C14.6761 17.2591 14.3983 17.2752 14.2025 17.13L14.1465 17.0816L10.8792 13.8144C10.0479 14.4898 8.98794 14.8947 7.83334 14.8947C5.16396 14.8947 3 12.7308 3 10.0614C3 7.39198 5.16396 5.22802 7.83334 5.22802ZM7.83334 6.22802C5.71624 6.22802 4 7.94426 4 10.0614C4 12.1784 5.71624 13.8947 7.83334 13.8947C9.95041 13.8947 11.6667 12.1784 11.6667 10.0614C11.6667 7.94426 9.95041 6.22802 7.83334 6.22802Z" fill="#60676B"/>
</svg>
